<mxfile host="app.diagrams.net" modified="2023-05-05T17:21:13.461Z" agent="Mozilla/5.0 (Macintosh; Intel Mac OS X 10.15; rv:109.0) Gecko/20100101 Firefox/112.0" etag="ehM8cUd3h0V4Yyb0dSDr" version="21.2.3" type="device">
  <diagram name="Page-1" id="0so5IOn9kXRtrQ0GSzbd">
    <mxGraphModel dx="1099" dy="608" grid="1" gridSize="10" guides="1" tooltips="1" connect="1" arrows="1" fold="1" page="1" pageScale="1" pageWidth="1100" pageHeight="850" math="0" shadow="0">
      <root>
        <mxCell id="0" />
        <mxCell id="1" parent="0" />
        <mxCell id="JW9bMk0-jgnqlFH52kPQ-1" value="" style="rounded=1;whiteSpace=wrap;html=1;fillColor=#fff2cc;strokeColor=#d6b656;" vertex="1" parent="1">
          <mxGeometry x="140" y="360" width="360" height="200" as="geometry" />
        </mxCell>
        <mxCell id="JW9bMk0-jgnqlFH52kPQ-2" value="&lt;font style=&quot;font-size: 14px;&quot;&gt;weight&amp;nbsp; –&amp;nbsp; nn.Parameter&amp;nbsp; –&amp;nbsp; (N, M)&lt;/font&gt;" style="rounded=1;whiteSpace=wrap;html=1;fillColor=#dae8fc;strokeColor=#6c8ebf;align=center;fontFamily=Fira Code;fontSource=https%3A%2F%2Ffonts.googleapis.com%2Fcss%3Ffamily%3DFira%2BCode;fontSize=14;" vertex="1" parent="1">
          <mxGeometry x="160" y="440" width="320" height="40" as="geometry" />
        </mxCell>
        <mxCell id="JW9bMk0-jgnqlFH52kPQ-3" value="&lt;font style=&quot;font-size: 24px;&quot;&gt;nn.Linear&lt;/font&gt;" style="text;html=1;strokeColor=none;fillColor=none;align=center;verticalAlign=middle;whiteSpace=wrap;rounded=0;fontFamily=Fira Code;fontSource=https%3A%2F%2Ffonts.googleapis.com%2Fcss%3Ffamily%3DFira%2BCode;" vertex="1" parent="1">
          <mxGeometry x="240" y="360" width="160" height="60" as="geometry" />
        </mxCell>
        <mxCell id="JW9bMk0-jgnqlFH52kPQ-6" value="&lt;div style=&quot;font-size: 40px;&quot;&gt;&lt;font style=&quot;font-size: 40px;&quot; data-font-src=&quot;https://fonts.googleapis.com/css?family=Fira+Sans&quot; face=&quot;Fira Sans&quot;&gt;Regular Networks &lt;br&gt;&lt;/font&gt;&lt;/div&gt;&lt;div style=&quot;font-size: 40px;&quot;&gt;&lt;font style=&quot;font-size: 40px;&quot; data-font-src=&quot;https://fonts.googleapis.com/css?family=Fira+Code&quot; face=&quot;Fira Code&quot;&gt;PyTorch&lt;/font&gt;&lt;/div&gt;" style="text;html=1;strokeColor=none;fillColor=none;align=center;verticalAlign=middle;whiteSpace=wrap;rounded=0;spacing=20;fontColor=#808080;" vertex="1" parent="1">
          <mxGeometry x="105" y="50" width="430" height="100" as="geometry" />
        </mxCell>
        <mxCell id="JW9bMk0-jgnqlFH52kPQ-7" value="&lt;div style=&quot;font-size: 40px;&quot;&gt;&lt;font style=&quot;font-size: 40px;&quot; data-font-src=&quot;https://fonts.googleapis.com/css?family=Fira+Sans&quot; face=&quot;Fira Sans&quot; color=&quot;#333333&quot;&gt;Hyper-Networks&lt;/font&gt;&lt;/div&gt;&lt;div style=&quot;font-size: 40px;&quot;&gt;&lt;font style=&quot;font-size: 40px;&quot; data-font-src=&quot;https://fonts.googleapis.com/css?family=Fira+Code&quot; face=&quot;Fira Code&quot; color=&quot;#333333&quot;&gt;Hyperlight&lt;/font&gt;&lt;font style=&quot;font-size: 40px;&quot; data-font-src=&quot;https://fonts.googleapis.com/css?family=Fira+Code&quot; face=&quot;Fira Code&quot; color=&quot;#333333&quot;&gt;&lt;br&gt;&lt;/font&gt;&lt;/div&gt;" style="text;html=1;strokeColor=none;fillColor=none;align=center;verticalAlign=middle;whiteSpace=wrap;rounded=0;spacing=20;" vertex="1" parent="1">
          <mxGeometry x="890" y="50" width="350" height="100" as="geometry" />
        </mxCell>
        <mxCell id="JW9bMk0-jgnqlFH52kPQ-8" value="" style="rounded=1;whiteSpace=wrap;html=1;fillColor=#fff2cc;strokeColor=#d6b656;" vertex="1" parent="1">
          <mxGeometry x="850" y="590" width="420" height="200" as="geometry" />
        </mxCell>
        <mxCell id="JW9bMk0-jgnqlFH52kPQ-9" value="&lt;font style=&quot;font-size: 14px;&quot;&gt;weight&amp;nbsp; –&amp;nbsp; nn.ExternalParameter&amp;nbsp; –&amp;nbsp; (N, M)&lt;/font&gt;" style="rounded=1;whiteSpace=wrap;html=1;fillColor=#b0e3e6;strokeColor=#0e8088;align=center;fontFamily=Fira Code;fontSource=https%3A%2F%2Ffonts.googleapis.com%2Fcss%3Ffamily%3DFira%2BCode;fontSize=14;" vertex="1" parent="1">
          <mxGeometry x="870" y="670" width="380" height="40" as="geometry" />
        </mxCell>
        <mxCell id="JW9bMk0-jgnqlFH52kPQ-10" value="&lt;font style=&quot;font-size: 24px;&quot;&gt;hl.HyperLinear&lt;/font&gt;" style="text;html=1;strokeColor=none;fillColor=none;align=center;verticalAlign=middle;whiteSpace=wrap;rounded=0;fontFamily=Fira Code;fontSource=https%3A%2F%2Ffonts.googleapis.com%2Fcss%3Ffamily%3DFira%2BCode;" vertex="1" parent="1">
          <mxGeometry x="980" y="600" width="160" height="60" as="geometry" />
        </mxCell>
        <mxCell id="JW9bMk0-jgnqlFH52kPQ-12" value="" style="rounded=1;whiteSpace=wrap;html=1;fillColor=#ffe6cc;strokeColor=#d79b00;" vertex="1" parent="1">
          <mxGeometry x="850" y="190" width="420" height="280" as="geometry" />
        </mxCell>
        <mxCell id="JW9bMk0-jgnqlFH52kPQ-26" value="&lt;font style=&quot;font-size: 14px;&quot;&gt;bias &amp;nbsp;&amp;nbsp; –&amp;nbsp; nn.Parameter&amp;nbsp; –&amp;nbsp; (N*M,)&amp;nbsp;&amp;nbsp; &lt;br&gt;&lt;/font&gt;" style="rounded=1;whiteSpace=wrap;html=1;fillColor=#dae8fc;strokeColor=#6c8ebf;align=center;fontFamily=Fira Code;fontSource=https%3A%2F%2Ffonts.googleapis.com%2Fcss%3Ffamily%3DFira%2BCode;fontSize=14;" vertex="1" parent="1">
          <mxGeometry x="160" y="500" width="320" height="40" as="geometry" />
        </mxCell>
        <mxCell id="JW9bMk0-jgnqlFH52kPQ-27" value="&lt;font style=&quot;font-size: 14px;&quot;&gt;bias &amp;nbsp;&amp;nbsp; –&amp;nbsp; nn.ExternalParameter&amp;nbsp; –&amp;nbsp; (N,)&amp;nbsp; &lt;br&gt;&lt;/font&gt;" style="rounded=1;whiteSpace=wrap;html=1;fillColor=#b0e3e6;strokeColor=#0e8088;align=center;fontFamily=Fira Code;fontSource=https%3A%2F%2Ffonts.googleapis.com%2Fcss%3Ffamily%3DFira%2BCode;fontSize=14;" vertex="1" parent="1">
          <mxGeometry x="870" y="725" width="380" height="40" as="geometry" />
        </mxCell>
        <mxCell id="JW9bMk0-jgnqlFH52kPQ-28" value="&lt;font style=&quot;font-size: 24px;&quot;&gt;hl.HyperNet&lt;/font&gt;" style="text;html=1;strokeColor=none;fillColor=none;align=center;verticalAlign=middle;whiteSpace=wrap;rounded=0;fontFamily=Fira Code;fontSource=https%3A%2F%2Ffonts.googleapis.com%2Fcss%3Ffamily%3DFira%2BCode;" vertex="1" parent="1">
          <mxGeometry x="990" y="190" width="160" height="60" as="geometry" />
        </mxCell>
        <mxCell id="JW9bMk0-jgnqlFH52kPQ-32" value="" style="rounded=1;whiteSpace=wrap;html=1;fillColor=#FFFFFF;gradientColor=none;strokeColor=none;opacity=50;" vertex="1" parent="1">
          <mxGeometry x="880" y="250" width="370" height="200" as="geometry" />
        </mxCell>
        <mxCell id="JW9bMk0-jgnqlFH52kPQ-29" value="&lt;div style=&quot;font-size: 18px;&quot; align=&quot;left&quot;&gt;&lt;font style=&quot;font-size: 18px;&quot;&gt;input_shapes &lt;font color=&quot;#808080&quot;&gt;= {&#39;h&#39;: (10,)}&lt;br&gt;&lt;/font&gt;&lt;/font&gt;&lt;/div&gt;&lt;div style=&quot;font-size: 18px;&quot; align=&quot;left&quot;&gt;&lt;font style=&quot;font-size: 18px;&quot;&gt;&lt;br&gt;&lt;/font&gt;&lt;/div&gt;&lt;div style=&quot;font-size: 18px;&quot; align=&quot;left&quot;&gt;&lt;font style=&quot;font-size: 18px;&quot;&gt;output_shapes &lt;font color=&quot;#808080&quot;&gt;= {&lt;/font&gt;&lt;/font&gt;&lt;/div&gt;&lt;div style=&quot;font-size: 18px;&quot; align=&quot;left&quot;&gt;&lt;font style=&quot;font-size: 18px;&quot; color=&quot;#808080&quot;&gt;&amp;nbsp; &#39;weight&#39;: (N, M),&lt;/font&gt;&lt;/div&gt;&lt;div style=&quot;font-size: 18px;&quot; align=&quot;left&quot;&gt;&lt;font style=&quot;font-size: 18px;&quot; color=&quot;#808080&quot;&gt;&amp;nbsp; &#39;bias&#39;: (N,)&lt;/font&gt;&lt;/div&gt;&lt;div style=&quot;font-size: 18px;&quot; align=&quot;left&quot;&gt;&lt;font style=&quot;font-size: 18px;&quot; color=&quot;#808080&quot;&gt;}&lt;br&gt;&lt;/font&gt;&lt;/div&gt;&lt;div style=&quot;font-size: 18px;&quot; align=&quot;left&quot;&gt;&lt;font style=&quot;font-size: 18px;&quot;&gt;&lt;br&gt;&lt;/font&gt;&lt;/div&gt;&lt;div style=&quot;font-size: 18px;&quot; align=&quot;left&quot;&gt;&lt;font style=&quot;font-size: 18px;&quot;&gt;hidden_sizes &lt;font color=&quot;#808080&quot;&gt;= [64, 128]&lt;br&gt;&lt;/font&gt;&lt;/font&gt;&lt;/div&gt;&lt;font style=&quot;font-size: 18px;&quot;&gt;&lt;br&gt;&lt;/font&gt;" style="text;html=1;strokeColor=none;fillColor=none;align=left;verticalAlign=top;whiteSpace=wrap;rounded=0;fontFamily=Fira Code;fontSource=https%3A%2F%2Ffonts.googleapis.com%2Fcss%3Ffamily%3DFira%2BCode;" vertex="1" parent="1">
          <mxGeometry x="900" y="260" width="370" height="160" as="geometry" />
        </mxCell>
        <mxCell id="JW9bMk0-jgnqlFH52kPQ-33" value="" style="endArrow=classic;html=1;rounded=0;exitX=0.5;exitY=1;exitDx=0;exitDy=0;entryX=0.5;entryY=0;entryDx=0;entryDy=0;strokeWidth=4;strokeColor=#66CC00;" edge="1" parent="1" source="JW9bMk0-jgnqlFH52kPQ-12" target="JW9bMk0-jgnqlFH52kPQ-8">
          <mxGeometry width="50" height="50" relative="1" as="geometry">
            <mxPoint x="820" y="610" as="sourcePoint" />
            <mxPoint x="870" y="560" as="targetPoint" />
          </mxGeometry>
        </mxCell>
        <mxCell id="JW9bMk0-jgnqlFH52kPQ-25" value="&lt;div style=&quot;font-size: 20px;&quot;&gt;&lt;font style=&quot;font-size: 20px;&quot; data-font-src=&quot;https://fonts.googleapis.com/css?family=Fira+Code&quot; face=&quot;Fira Code&quot;&gt;set_externals()&lt;/font&gt;&lt;/div&gt;" style="rounded=1;whiteSpace=wrap;html=1;fillColor=#CCFFCC;strokeColor=#66CC00;" vertex="1" parent="1">
          <mxGeometry x="956" y="494" width="210" height="60" as="geometry" />
        </mxCell>
        <mxCell id="JW9bMk0-jgnqlFH52kPQ-36" value="" style="group;fillColor=none;" vertex="1" connectable="0" parent="1">
          <mxGeometry x="600" y="430" width="170" height="80" as="geometry" />
        </mxCell>
        <mxCell id="JW9bMk0-jgnqlFH52kPQ-34" value="" style="triangle;whiteSpace=wrap;html=1;strokeColor=none;fillColor=#E6E6E6;" vertex="1" parent="JW9bMk0-jgnqlFH52kPQ-36">
          <mxGeometry x="110" width="60" height="80" as="geometry" />
        </mxCell>
        <mxCell id="JW9bMk0-jgnqlFH52kPQ-35" value="" style="rounded=0;whiteSpace=wrap;html=1;strokeColor=none;fillColor=#E6E6E6;" vertex="1" parent="JW9bMk0-jgnqlFH52kPQ-36">
          <mxGeometry y="27" width="120" height="30" as="geometry" />
        </mxCell>
      </root>
    </mxGraphModel>
  </diagram>
</mxfile>
